<svg width="680" height="540" viewBox="0 0 680 540" xmlns="http://www.w3.org/2000/svg">
<style>
:root {
  --bg: #110c04;
  --bg2: #1c1308;
  --orange: #e8740c;
  --amber: #f59e0b;
  --burnt: #b8520a;
  --dim: #5e4a2e;
  --white: #f5ede4;
  --cream: #c9b899;
  --gray: #6b5d4f;
}
</style>

<rect x="0" y="0" width="680" height="540" rx="12" fill="var(--bg)"/>

<g transform="translate(340, 120)">
<circle cx="0" cy="0" r="70" fill="none" stroke="var(--dim)" stroke-width="0.4" opacity="0.25"/>

<path d="M0,52 L0,-30" fill="none" stroke="var(--orange)" stroke-width="4" stroke-linecap="round"/>
<path d="M-24,52 Q-24,10 -36,-26" fill="none" stroke="var(--amber)" stroke-width="3" stroke-linecap="round"/>
<path d="M24,52 Q24,10 36,-26" fill="none" stroke="var(--amber)" stroke-width="3" stroke-linecap="round"/>
<path d="M-44,48 Q-42,8 -56,-20" fill="none" stroke="var(--orange)" stroke-width="2" stroke-linecap="round" opacity="0.7"/>
<path d="M44,48 Q42,8 56,-20" fill="none" stroke="var(--orange)" stroke-width="2" stroke-linecap="round" opacity="0.7"/>

<circle cx="0" cy="-30" r="6" fill="var(--amber)"/>
<circle cx="0" cy="-30" r="11" fill="var(--amber)" opacity="0.12"/>
<circle cx="0" cy="-30" r="18" fill="var(--amber)" opacity="0.05"/>
<circle cx="-36" cy="-26" r="4" fill="var(--orange)" opacity="0.8"/>
<circle cx="36" cy="-26" r="4" fill="var(--orange)" opacity="0.8"/>
<circle cx="-56" cy="-20" r="2.5" fill="var(--orange)" opacity="0.5"/>
<circle cx="56" cy="-20" r="2.5" fill="var(--orange)" opacity="0.5"/>

<rect x="-52" y="48" width="104" height="10" rx="2" fill="var(--bg2)" stroke="var(--burnt)" stroke-width="0.8" opacity="0.7"/>
<rect x="-4" y="49" width="8" height="8" rx="1" fill="var(--orange)" opacity="0.3"/>
<rect x="-20" y="49" width="8" height="8" rx="1" fill="var(--amber)" opacity="0.25"/>
<rect x="12" y="49" width="8" height="8" rx="1" fill="var(--amber)" opacity="0.25"/>
<rect x="-36" y="49" width="8" height="8" rx="1" fill="var(--orange)" opacity="0.2"/>
<rect x="28" y="49" width="8" height="8" rx="1" fill="var(--orange)" opacity="0.2"/>
</g>

<text x="340" y="245" text-anchor="middle" fill="var(--white)" font-size="48" font-weight="500" letter-spacing="4" font-family="system-ui, -apple-system, sans-serif">BALCITA</text>

<line x1="185" y1="270" x2="330" y2="270" stroke="var(--orange)" stroke-width="1.2" opacity="0.3"/>
<circle cx="340" cy="270" r="2.5" fill="var(--orange)" opacity="0.5"/>
<line x1="350" y1="270" x2="495" y2="270" stroke="var(--orange)" stroke-width="1.2" opacity="0.3"/>

<text x="340" y="305" text-anchor="middle" fill="var(--orange)" font-size="18" font-weight="500" letter-spacing="3" font-family="system-ui, -apple-system, sans-serif">FIBER OPTIC</text>
<text x="340" y="335" text-anchor="middle" fill="var(--cream)" font-size="13" letter-spacing="6" font-family="system-ui, -apple-system, sans-serif">INSTALLATION SERVICE</text>

<g transform="translate(340, 400)">
<rect x="-175" y="-22" width="350" height="44" rx="22" fill="none" stroke="var(--dim)" stroke-width="0.5" opacity="0.25"/>

<circle cx="-120" cy="0" r="12" fill="none" stroke="var(--orange)" stroke-width="0.8" opacity="0.5"/>
<line x1="-126" y1="0" x2="-121" y2="0" stroke="var(--orange)" stroke-width="1.5" stroke-linecap="round" opacity="0.6"/>
<line x1="-119" y1="0" x2="-114" y2="0" stroke="var(--orange)" stroke-width="1.5" stroke-linecap="round" opacity="0.6"/>
<circle cx="-120" cy="0" r="2" fill="var(--amber)" opacity="0.7"/>

<circle cx="-40" cy="0" r="12" fill="none" stroke="var(--amber)" stroke-width="0.8" opacity="0.5"/>
<rect x="-46" y="-5" width="5" height="10" rx="1" fill="none" stroke="var(--amber)" stroke-width="1" opacity="0.6"/>
<rect x="-39" y="-7" width="5" height="14" rx="1" fill="none" stroke="var(--amber)" stroke-width="1" opacity="0.6"/>
<rect x="-32" y="-3" width="5" height="8" rx="1" fill="none" stroke="var(--amber)" stroke-width="1" opacity="0.6"/>

<circle cx="40" cy="0" r="12" fill="none" stroke="var(--orange)" stroke-width="0.8" opacity="0.5"/>
<circle cx="40" cy="0" r="5" fill="none" stroke="var(--orange)" stroke-width="1" opacity="0.5"/>
<circle cx="40" cy="0" r="1.5" fill="var(--orange)" opacity="0.6"/>
<path d="M34,-3 L37,0 L34,3" fill="none" stroke="var(--orange)" stroke-width="0.8" stroke-linecap="round" opacity="0.4"/>
<path d="M46,-3 L43,0 L46,3" fill="none" stroke="var(--orange)" stroke-width="0.8" stroke-linecap="round" opacity="0.4"/>

<circle cx="120" cy="0" r="12" fill="none" stroke="var(--amber)" stroke-width="0.8" opacity="0.5"/>
<path d="M115,-4 L119,1 L125,-5" fill="none" stroke="var(--amber)" stroke-width="1.5" stroke-linecap="round" stroke-linejoin="round" opacity="0.7"/>
<line x1="114" y1="5" x2="126" y2="5" stroke="var(--amber)" stroke-width="0.8" stroke-linecap="round" opacity="0.4"/>
</g>

<g transform="translate(340, 428)">
<text x="-120" y="0" text-anchor="middle" fill="var(--gray)" font-size="8" letter-spacing="1" font-family="system-ui, -apple-system, sans-serif">SPLICE</text>
<text x="-40" y="0" text-anchor="middle" fill="var(--gray)" font-size="8" letter-spacing="1" font-family="system-ui, -apple-system, sans-serif">BUILD</text>
<text x="40" y="0" text-anchor="middle" fill="var(--gray)" font-size="8" letter-spacing="1" font-family="system-ui, -apple-system, sans-serif">TEST</text>
<text x="120" y="0" text-anchor="middle" fill="var(--gray)" font-size="8" letter-spacing="1" font-family="system-ui, -apple-system, sans-serif">CERTIFY</text>
</g>

<text x="340" y="490" text-anchor="middle" fill="var(--dim)" font-size="9" letter-spacing="3" font-family="system-ui, -apple-system, sans-serif">PROJECT-BASED FIBER OPTIC SUB-CONTRACTOR</text>
</svg>
